<svg width="524" height="155" viewBox="0 0 524 155" fill="none" xmlns="http://www.w3.org/2000/svg">
<mask id="path-1-outside-1_434_9" maskUnits="userSpaceOnUse" x="57" y="29" width="415" height="96" fill="black">
<rect fill="white" x="57" y="29" width="415" height="96"/>
<path d="M138.289 90.0476C138.289 95.7385 137.268 100.647 135.227 104.774C133.185 108.858 130.383 112.246 126.821 114.94C123.258 117.59 119.044 119.566 114.179 120.87C109.357 122.129 104.144 122.759 98.5399 122.759C92.8924 122.759 87.6359 122.129 82.7704 120.87C77.9049 119.566 73.6693 117.59 70.0636 114.94C66.5014 112.246 63.6994 108.858 61.6576 104.774C59.6158 100.647 58.5949 95.7385 58.5949 90.0476C58.5949 84.4001 59.6158 79.5129 61.6576 75.3859C63.7428 71.2154 66.5883 67.8053 70.1939 65.1553C73.7996 62.4619 78.0352 60.4636 82.9007 59.1603C87.7662 57.857 92.9793 57.2054 98.5399 57.2054C104.144 57.2054 109.357 57.857 114.179 59.1603C119.044 60.4201 123.258 62.3967 126.821 65.0901C130.383 67.7401 133.185 71.1503 135.227 75.3207C137.268 79.4477 138.289 84.3567 138.289 90.0476ZM130.274 90.0476C130.274 81.6633 127.603 75.2556 122.259 70.8245C116.959 66.3934 109.053 64.1778 98.5399 64.1778C87.9835 64.1778 80.0118 66.3934 74.625 70.8245C69.2817 75.2556 66.61 81.6633 66.61 90.0476C66.61 98.4319 69.2817 104.818 74.625 109.205C80.0118 113.593 87.9835 115.787 98.5399 115.787C109.053 115.787 116.959 113.593 122.259 109.205C127.603 104.774 130.274 98.3884 130.274 90.0476ZM159.814 58.9648H182.621V70.6941C184.663 68.7393 186.943 66.9364 189.463 65.2856C191.983 63.5914 194.698 62.1143 197.609 60.8545C200.519 59.5947 203.582 58.6173 206.796 57.9222C210.011 57.1837 213.313 56.8144 216.701 56.8144C220.741 56.8144 224.26 57.3357 227.258 58.3783C230.299 59.3775 232.818 60.8111 234.817 62.6791C236.815 64.5471 238.314 66.8278 239.313 69.5212C240.312 72.1712 240.812 75.147 240.812 78.4485V113.637H255.538V121H218.005V113.637H232.666V80.8596C232.666 77.558 232.232 74.8429 231.363 72.7142C230.538 70.5421 229.343 68.8261 227.779 67.5663C226.215 66.3065 224.304 65.4377 222.045 64.9598C219.829 64.4385 217.331 64.1778 214.551 64.1778C211.293 64.1778 208.1 64.6123 204.972 65.4811C201.844 66.3499 198.89 67.436 196.11 68.7393C193.373 70.0425 190.832 71.4978 188.486 73.1052C186.183 74.6691 184.228 76.1678 182.621 77.6014V113.637H197.348V121H159.814V113.637H174.476V66.2631H159.814V58.9648ZM355.715 90.0476C355.715 95.7385 354.694 100.647 352.652 104.774C350.61 108.858 347.808 112.246 344.246 114.94C340.684 117.59 336.47 119.566 331.605 120.87C326.782 122.129 321.569 122.759 315.965 122.759C310.318 122.759 305.061 122.129 300.196 120.87C295.33 119.566 291.095 117.59 287.489 114.94C283.927 112.246 281.125 108.858 279.083 104.774C277.041 100.647 276.02 95.7385 276.02 90.0476C276.02 84.4001 277.041 79.5129 279.083 75.3859C281.168 71.2154 284.014 67.8053 287.62 65.1553C291.225 62.4619 295.461 60.4636 300.326 59.1603C305.192 57.857 310.405 57.2054 315.965 57.2054C321.569 57.2054 326.782 57.857 331.605 59.1603C336.47 60.4201 340.684 62.3967 344.246 65.0901C347.808 67.7401 350.61 71.1503 352.652 75.3207C354.694 79.4477 355.715 84.3567 355.715 90.0476ZM347.7 90.0476C347.7 81.6633 345.028 75.2556 339.685 70.8245C334.385 66.3934 326.478 64.1778 315.965 64.1778C305.409 64.1778 297.437 66.3934 292.051 70.8245C286.707 75.2556 284.036 81.6633 284.036 90.0476C284.036 98.4319 286.707 104.818 292.051 109.205C297.437 113.593 305.409 115.787 315.965 115.787C326.478 115.787 334.385 113.593 339.685 109.205C345.028 104.774 347.7 98.3884 347.7 90.0476ZM469.966 121H447.159V111.942C445.118 113.55 442.989 115.027 440.773 116.373C438.558 117.677 436.169 118.806 433.606 119.762C431.086 120.718 428.371 121.456 425.46 121.977C422.593 122.499 419.465 122.759 416.077 122.759C411.559 122.759 407.149 122.108 402.849 120.805C398.591 119.458 394.812 117.416 391.51 114.679C388.209 111.942 385.559 108.489 383.56 104.318C381.562 100.148 380.563 95.2172 380.563 89.5263C380.563 84.0526 381.54 79.2957 383.495 75.2556C385.493 71.2154 388.209 67.8704 391.641 65.2205C395.072 62.527 399.091 60.5287 403.696 59.2255C408.301 57.8788 413.231 57.2054 418.488 57.2054C421.138 57.2054 423.744 57.4226 426.307 57.857C428.87 58.248 431.368 58.8128 433.801 59.5513C436.234 60.2898 438.58 61.1586 440.839 62.1578C443.098 63.1135 445.205 64.1344 447.159 65.2205V38.7643H432.367V31.466H455.305V113.637H469.966V121ZM417.966 115.787C421.181 115.787 424.2 115.418 427.024 114.679C429.891 113.897 432.541 112.898 434.974 111.682C437.45 110.465 439.687 109.119 441.686 107.642C443.728 106.165 445.552 104.709 447.159 103.276V73.4962C445.509 72.2798 443.662 71.1286 441.621 70.0425C439.579 68.913 437.342 67.9139 434.909 67.045C432.519 66.1762 429.956 65.4811 427.22 64.9598C424.526 64.4385 421.659 64.1778 418.618 64.1778C414.144 64.1778 410.06 64.7426 406.367 65.8721C402.675 67.0016 399.504 68.6524 396.854 70.8245C394.247 72.9531 392.205 75.6031 390.728 78.7744C389.295 81.9022 388.578 85.4862 388.578 89.5263C388.578 97.954 391.076 104.449 396.072 109.01C401.067 113.528 408.366 115.787 417.966 115.787Z"/>
</mask>
<path d="M138.289 90.0476C138.289 95.7385 137.268 100.647 135.227 104.774C133.185 108.858 130.383 112.246 126.821 114.94C123.258 117.59 119.044 119.566 114.179 120.87C109.357 122.129 104.144 122.759 98.5399 122.759C92.8924 122.759 87.6359 122.129 82.7704 120.87C77.9049 119.566 73.6693 117.59 70.0636 114.94C66.5014 112.246 63.6994 108.858 61.6576 104.774C59.6158 100.647 58.5949 95.7385 58.5949 90.0476C58.5949 84.4001 59.6158 79.5129 61.6576 75.3859C63.7428 71.2154 66.5883 67.8053 70.1939 65.1553C73.7996 62.4619 78.0352 60.4636 82.9007 59.1603C87.7662 57.857 92.9793 57.2054 98.5399 57.2054C104.144 57.2054 109.357 57.857 114.179 59.1603C119.044 60.4201 123.258 62.3967 126.821 65.0901C130.383 67.7401 133.185 71.1503 135.227 75.3207C137.268 79.4477 138.289 84.3567 138.289 90.0476ZM130.274 90.0476C130.274 81.6633 127.603 75.2556 122.259 70.8245C116.959 66.3934 109.053 64.1778 98.5399 64.1778C87.9835 64.1778 80.0118 66.3934 74.625 70.8245C69.2817 75.2556 66.61 81.6633 66.61 90.0476C66.61 98.4319 69.2817 104.818 74.625 109.205C80.0118 113.593 87.9835 115.787 98.5399 115.787C109.053 115.787 116.959 113.593 122.259 109.205C127.603 104.774 130.274 98.3884 130.274 90.0476ZM159.814 58.9648H182.621V70.6941C184.663 68.7393 186.943 66.9364 189.463 65.2856C191.983 63.5914 194.698 62.1143 197.609 60.8545C200.519 59.5947 203.582 58.6173 206.796 57.9222C210.011 57.1837 213.313 56.8144 216.701 56.8144C220.741 56.8144 224.26 57.3357 227.258 58.3783C230.299 59.3775 232.818 60.8111 234.817 62.6791C236.815 64.5471 238.314 66.8278 239.313 69.5212C240.312 72.1712 240.812 75.147 240.812 78.4485V113.637H255.538V121H218.005V113.637H232.666V80.8596C232.666 77.558 232.232 74.8429 231.363 72.7142C230.538 70.5421 229.343 68.8261 227.779 67.5663C226.215 66.3065 224.304 65.4377 222.045 64.9598C219.829 64.4385 217.331 64.1778 214.551 64.1778C211.293 64.1778 208.1 64.6123 204.972 65.4811C201.844 66.3499 198.89 67.436 196.11 68.7393C193.373 70.0425 190.832 71.4978 188.486 73.1052C186.183 74.6691 184.228 76.1678 182.621 77.6014V113.637H197.348V121H159.814V113.637H174.476V66.2631H159.814V58.9648ZM355.715 90.0476C355.715 95.7385 354.694 100.647 352.652 104.774C350.61 108.858 347.808 112.246 344.246 114.94C340.684 117.59 336.47 119.566 331.605 120.87C326.782 122.129 321.569 122.759 315.965 122.759C310.318 122.759 305.061 122.129 300.196 120.87C295.33 119.566 291.095 117.59 287.489 114.94C283.927 112.246 281.125 108.858 279.083 104.774C277.041 100.647 276.02 95.7385 276.02 90.0476C276.02 84.4001 277.041 79.5129 279.083 75.3859C281.168 71.2154 284.014 67.8053 287.62 65.1553C291.225 62.4619 295.461 60.4636 300.326 59.1603C305.192 57.857 310.405 57.2054 315.965 57.2054C321.569 57.2054 326.782 57.857 331.605 59.1603C336.47 60.4201 340.684 62.3967 344.246 65.0901C347.808 67.7401 350.61 71.1503 352.652 75.3207C354.694 79.4477 355.715 84.3567 355.715 90.0476ZM347.7 90.0476C347.7 81.6633 345.028 75.2556 339.685 70.8245C334.385 66.3934 326.478 64.1778 315.965 64.1778C305.409 64.1778 297.437 66.3934 292.051 70.8245C286.707 75.2556 284.036 81.6633 284.036 90.0476C284.036 98.4319 286.707 104.818 292.051 109.205C297.437 113.593 305.409 115.787 315.965 115.787C326.478 115.787 334.385 113.593 339.685 109.205C345.028 104.774 347.7 98.3884 347.7 90.0476ZM469.966 121H447.159V111.942C445.118 113.55 442.989 115.027 440.773 116.373C438.558 117.677 436.169 118.806 433.606 119.762C431.086 120.718 428.371 121.456 425.46 121.977C422.593 122.499 419.465 122.759 416.077 122.759C411.559 122.759 407.149 122.108 402.849 120.805C398.591 119.458 394.812 117.416 391.51 114.679C388.209 111.942 385.559 108.489 383.56 104.318C381.562 100.148 380.563 95.2172 380.563 89.5263C380.563 84.0526 381.54 79.2957 383.495 75.2556C385.493 71.2154 388.209 67.8704 391.641 65.2205C395.072 62.527 399.091 60.5287 403.696 59.2255C408.301 57.8788 413.231 57.2054 418.488 57.2054C421.138 57.2054 423.744 57.4226 426.307 57.857C428.87 58.248 431.368 58.8128 433.801 59.5513C436.234 60.2898 438.58 61.1586 440.839 62.1578C443.098 63.1135 445.205 64.1344 447.159 65.2205V38.7643H432.367V31.466H455.305V113.637H469.966V121ZM417.966 115.787C421.181 115.787 424.2 115.418 427.024 114.679C429.891 113.897 432.541 112.898 434.974 111.682C437.45 110.465 439.687 109.119 441.686 107.642C443.728 106.165 445.552 104.709 447.159 103.276V73.4962C445.509 72.2798 443.662 71.1286 441.621 70.0425C439.579 68.913 437.342 67.9139 434.909 67.045C432.519 66.1762 429.956 65.4811 427.22 64.9598C424.526 64.4385 421.659 64.1778 418.618 64.1778C414.144 64.1778 410.06 64.7426 406.367 65.8721C402.675 67.0016 399.504 68.6524 396.854 70.8245C394.247 72.9531 392.205 75.6031 390.728 78.7744C389.295 81.9022 388.578 85.4862 388.578 89.5263C388.578 97.954 391.076 104.449 396.072 109.01C401.067 113.528 408.366 115.787 417.966 115.787Z" fill="black"/>
<path d="M135.227 104.774L136.652 105.487L136.655 105.481L135.227 104.774ZM126.821 114.94L127.772 116.218L127.781 116.211L126.821 114.94ZM114.179 120.87L114.582 122.411L114.591 122.409L114.179 120.87ZM82.7704 120.87L82.3582 122.409L82.3711 122.412L82.7704 120.87ZM70.0636 114.94L69.1028 116.211L69.1114 116.217L69.1202 116.224L70.0636 114.94ZM61.6576 104.774L60.2296 105.481L60.2327 105.487L61.6576 104.774ZM61.6576 75.3859L60.2326 74.6734L60.2297 74.6794L61.6576 75.3859ZM70.1939 65.1553L71.1374 66.439L71.1474 66.4316L70.1939 65.1553ZM114.179 59.1603L113.763 60.6982L113.771 60.7004L113.78 60.7026L114.179 59.1603ZM126.821 65.0901L125.86 66.3609L125.87 66.3684L126.821 65.0901ZM135.227 75.3207L133.796 76.0212L133.799 76.0272L135.227 75.3207ZM122.259 70.8245L121.237 72.0467L121.242 72.0508L122.259 70.8245ZM74.625 70.8245L73.613 69.5941L73.6081 69.5981L74.625 70.8245ZM74.625 109.205L73.614 110.437L73.6189 110.441L74.625 109.205ZM122.259 109.205L123.275 110.433L123.276 110.432L122.259 109.205ZM138.289 90.0476H136.696C136.696 95.5501 135.709 100.206 133.799 104.068L135.227 104.774L136.655 105.481C138.828 101.089 139.882 95.9269 139.882 90.0476H138.289ZM135.227 104.774L133.802 104.062C131.867 107.931 129.222 111.127 125.86 113.669L126.821 114.94L127.781 116.211C131.544 113.366 134.503 109.785 136.652 105.487L135.227 104.774ZM126.821 114.94L125.87 113.662C122.489 116.176 118.464 118.073 113.767 119.331L114.179 120.87L114.591 122.409C119.625 121.06 124.028 119.003 127.771 116.218L126.821 114.94ZM114.179 120.87L113.776 119.328C109.101 120.55 104.025 121.166 98.5399 121.166V122.759V124.353C104.263 124.353 109.613 123.709 114.582 122.411L114.179 120.87ZM98.5399 122.759V121.166C93.0108 121.166 87.8899 120.55 83.1697 119.327L82.7704 120.87L82.3711 122.412C87.3819 123.709 92.774 124.353 98.5399 124.353V122.759ZM82.7704 120.87L83.1826 119.331C78.4846 118.072 74.4343 116.175 71.0071 113.656L70.0636 114.94L69.1202 116.224C72.9043 119.005 77.3252 121.06 82.3582 122.409L82.7704 120.87ZM70.0636 114.94L71.0245 113.669C67.6623 111.127 65.0172 107.931 63.0825 104.062L61.6576 104.774L60.2327 105.487C62.3816 109.785 65.3405 113.366 69.1028 116.211L70.0636 114.94ZM61.6576 104.774L63.0855 104.068C61.175 100.206 60.1881 95.5501 60.1881 90.0476H58.5949H57.0018C57.0018 95.9269 58.0566 101.089 60.2297 105.481L61.6576 104.774ZM58.5949 90.0476H60.1881C60.1881 84.5906 61.1743 79.9555 63.0855 76.0923L61.6576 75.3859L60.2297 74.6794C58.0574 79.0702 57.0018 84.2096 57.0018 90.0476H58.5949ZM61.6576 75.3859L63.0825 76.0984C65.0597 72.144 67.7439 68.9331 71.1374 66.439L70.1939 65.1553L69.2505 63.8716C65.4327 66.6774 62.4259 70.2869 60.2327 74.6734L61.6576 75.3859ZM70.1939 65.1553L71.1474 66.4316C74.5727 63.8729 78.6196 61.9563 83.3129 60.6992L82.9007 59.1603L82.4885 57.6214C77.4508 58.9708 73.0265 61.0508 69.2405 63.8789L70.1939 65.1553ZM82.9007 59.1603L83.3129 60.6992C88.0309 59.4354 93.1042 58.7985 98.5399 58.7985V57.2054V55.6123C92.8544 55.6123 87.5016 56.2786 82.4885 57.6214L82.9007 59.1603ZM98.5399 57.2054V58.7985C104.02 58.7985 109.092 59.4357 113.763 60.6982L114.179 59.1603L114.595 57.6223C109.622 56.2783 104.267 55.6123 98.5399 55.6123V57.2054ZM114.179 59.1603L113.78 60.7026C118.467 61.9163 122.485 63.809 125.86 66.3609L126.821 65.0901L127.781 63.8194C124.032 60.9844 119.622 58.9239 114.578 57.618L114.179 59.1603ZM126.821 65.0901L125.87 66.3684C129.219 68.8597 131.86 72.0681 133.796 76.0212L135.227 75.3207L136.658 74.6202C134.509 70.2325 131.547 66.6204 127.771 63.8119L126.821 65.0901ZM135.227 75.3207L133.799 76.0272C135.709 79.8888 136.696 84.5451 136.696 90.0476H138.289H139.882C139.882 84.1683 138.828 79.0066 136.655 74.6143L135.227 75.3207ZM130.274 90.0476H131.867C131.867 81.2977 129.061 74.395 123.276 69.5981L122.259 70.8245L121.242 72.0508C126.145 76.1161 128.681 82.0288 128.681 90.0476H130.274ZM122.259 70.8245L123.281 69.6022C117.578 64.8342 109.24 62.5847 98.5399 62.5847V64.1778V65.771C108.866 65.771 116.34 67.9526 121.237 72.0467L122.259 70.8245ZM98.5399 64.1778V62.5847C87.7959 62.5847 79.3992 64.8345 73.613 69.5941L74.625 70.8245L75.6371 72.0548C80.6245 67.9523 88.1711 65.771 98.5399 65.771V64.1778ZM74.625 70.8245L73.6081 69.5981C67.8237 74.395 65.0169 81.2977 65.0169 90.0476H66.61H68.2031C68.2031 82.0288 70.7397 76.1161 75.642 72.0508L74.625 70.8245ZM66.61 90.0476H65.0169C65.0169 98.7969 67.8237 105.682 73.614 110.437L74.625 109.205L75.636 107.974C70.7397 103.954 68.2031 98.0668 68.2031 90.0476H66.61ZM74.625 109.205L73.6189 110.441C79.4046 115.153 87.7988 117.38 98.5399 117.38V115.787V114.194C88.1681 114.194 80.619 112.033 75.6311 107.97L74.625 109.205ZM98.5399 115.787V117.38C109.237 117.38 117.573 115.154 123.275 110.433L122.259 109.205L121.243 107.978C116.346 112.033 108.869 114.194 98.5399 114.194V115.787ZM122.259 109.205L123.276 110.432C129.059 105.637 131.867 98.7571 131.867 90.0476H130.274H128.681C128.681 98.0198 126.147 103.912 121.242 107.979L122.259 109.205ZM159.814 58.9648V57.3717H158.221V58.9648H159.814ZM182.621 58.9648H184.214V57.3717H182.621V58.9648ZM182.621 70.6941H181.028V74.4251L183.723 71.8449L182.621 70.6941ZM189.463 65.2856L190.336 66.6182L190.344 66.613L190.352 66.6077L189.463 65.2856ZM206.797 57.9222L207.133 59.4793L207.143 59.4772L207.153 59.4749L206.797 57.9222ZM227.258 58.3783L226.734 59.883L226.747 59.8876L226.76 59.8919L227.258 58.3783ZM239.313 69.5212L237.819 70.0753L237.822 70.0833L239.313 69.5212ZM240.812 113.637H239.218V115.23H240.812V113.637ZM255.538 113.637H257.132V112.043H255.538V113.637ZM255.538 121V122.593H257.132V121H255.538ZM218.005 121H216.411V122.593H218.005V121ZM218.005 113.637V112.043H216.411V113.637H218.005ZM232.666 113.637V115.23H234.259V113.637H232.666ZM231.363 72.7142L229.874 73.2801L229.881 73.2983L229.888 73.3162L231.363 72.7142ZM222.045 64.9598L221.68 66.5106L221.697 66.5147L221.715 66.5184L222.045 64.9598ZM196.11 68.7393L195.434 67.2967L195.425 67.3009L196.11 68.7393ZM188.486 73.1052L189.381 74.423L189.386 74.4194L188.486 73.1052ZM182.621 77.6014L181.561 76.4125L181.028 76.8876V77.6014H182.621ZM182.621 113.637H181.028V115.23H182.621V113.637ZM197.348 113.637H198.941V112.043H197.348V113.637ZM197.348 121V122.593H198.941V121H197.348ZM159.814 121H158.221V122.593H159.814V121ZM159.814 113.637V112.043H158.221V113.637H159.814ZM174.476 113.637V115.23H176.069V113.637H174.476ZM174.476 66.2631H176.069V64.6699H174.476V66.2631ZM159.814 66.2631H158.221V67.8562H159.814V66.2631ZM159.814 58.9648V60.5579H182.621V58.9648V57.3717H159.814V58.9648ZM182.621 58.9648H181.028V70.6941H182.621H184.214V58.9648H182.621ZM182.621 70.6941L183.723 71.8449C185.69 69.9617 187.893 68.219 190.336 66.6182L189.463 65.2856L188.59 63.953C185.994 65.6538 183.636 67.5168 181.519 69.5434L182.621 70.6941ZM189.463 65.2856L190.352 66.6077C192.787 64.9702 195.416 63.5394 198.241 62.3166L197.609 60.8545L196.976 59.3925C193.98 60.6893 191.178 62.2126 188.574 63.9636L189.463 65.2856ZM197.609 60.8545L198.241 62.3166C201.053 61.0995 204.016 60.1533 207.133 59.4793L206.797 57.9222L206.46 56.365C203.147 57.0813 199.985 58.0899 196.976 59.3925L197.609 60.8545ZM206.797 57.9222L207.153 59.4749C210.248 58.764 213.43 58.4076 216.701 58.4076V56.8144V55.2213C213.196 55.2213 209.775 55.6034 206.44 56.3695L206.797 57.9222ZM216.701 56.8144V58.4076C220.61 58.4076 223.944 58.9125 226.734 59.883L227.258 58.3783L227.781 56.8736C224.576 55.759 220.873 55.2213 216.701 55.2213V56.8144ZM227.258 58.3783L226.76 59.8919C229.619 60.831 231.926 62.1577 233.729 63.8429L234.817 62.6791L235.905 61.5153C233.711 59.4645 230.979 57.924 227.755 56.8648L227.258 58.3783ZM234.817 62.6791L233.729 63.8429C235.537 65.5334 236.902 67.6019 237.819 70.0753L239.313 69.5212L240.807 68.9671C239.726 66.0537 238.093 63.5608 235.905 61.5153L234.817 62.6791ZM239.313 69.5212L237.822 70.0833C238.743 72.5265 239.218 75.3077 239.218 78.4485H240.812H242.405C242.405 74.9862 241.881 71.8159 240.804 68.9592L239.313 69.5212ZM240.812 78.4485H239.218V113.637H240.812H242.405V78.4485H240.812ZM240.812 113.637V115.23H255.538V113.637V112.043H240.812V113.637ZM255.538 113.637H253.945V121H255.538H257.132V113.637H255.538ZM255.538 121V119.407H218.005V121V122.593H255.538V121ZM218.005 121H219.598V113.637H218.005H216.411V121H218.005ZM218.005 113.637V115.23H232.666V113.637V112.043H218.005V113.637ZM232.666 113.637H234.259V80.8596H232.666H231.073V113.637H232.666ZM232.666 80.8596H234.259C234.259 77.4343 233.811 74.496 232.838 72.1122L231.363 72.7142L229.888 73.3162C230.653 75.1897 231.073 77.6816 231.073 80.8596H232.666ZM231.363 72.7142L232.852 72.1483C231.942 69.7539 230.595 67.7892 228.778 66.3257L227.779 67.5663L226.78 68.807C228.091 69.8631 229.133 71.3303 229.874 73.2801L231.363 72.7142ZM227.779 67.5663L228.778 66.3257C226.992 64.8866 224.842 63.9231 222.374 63.4012L222.045 64.9598L221.715 66.5184C223.766 66.9522 225.438 67.7264 226.78 68.807L227.779 67.5663ZM222.045 64.9598L222.41 63.409C220.052 62.8542 217.428 62.5847 214.551 62.5847V64.1778V65.771C217.234 65.771 219.607 66.0228 221.68 66.5106L222.045 64.9598ZM214.551 64.1778V62.5847C211.149 62.5847 207.813 63.0385 204.546 63.9461L204.972 65.4811L205.398 67.0161C208.387 66.186 211.436 65.771 214.551 65.771V64.1778ZM204.972 65.4811L204.546 63.9461C201.337 64.8374 198.299 65.9537 195.434 67.2967L196.11 68.7393L196.786 70.1818C199.481 68.9183 202.351 67.8625 205.398 67.0161L204.972 65.4811ZM196.11 68.7393L195.425 67.3009C192.618 68.6375 190.004 70.1337 187.585 71.791L188.486 73.1052L189.386 74.4194C191.659 72.8619 194.128 71.4475 196.795 70.1776L196.11 68.7393ZM188.486 73.1052L187.591 71.7873C185.246 73.3798 183.233 74.9212 181.561 76.4125L182.621 77.6014L183.681 78.7904C185.224 77.4145 187.121 75.9584 189.381 74.423L188.486 73.1052ZM182.621 77.6014H181.028V113.637H182.621H184.214V77.6014H182.621ZM182.621 113.637V115.23H197.348V113.637V112.043H182.621V113.637ZM197.348 113.637H195.755V121H197.348H198.941V113.637H197.348ZM197.348 121V119.407H159.814V121V122.593H197.348V121ZM159.814 121H161.407V113.637H159.814H158.221V121H159.814ZM159.814 113.637V115.23H174.476V113.637V112.043H159.814V113.637ZM174.476 113.637H176.069V66.2631H174.476H172.883V113.637H174.476ZM174.476 66.2631V64.6699H159.814V66.2631V67.8562H174.476V66.2631ZM159.814 66.2631H161.407V58.9648H159.814H158.221V66.2631H159.814ZM352.652 104.774L354.077 105.487L354.08 105.481L352.652 104.774ZM344.246 114.94L345.197 116.218L345.207 116.211L344.246 114.94ZM331.605 120.87L332.007 122.411L332.017 122.409L331.605 120.87ZM300.196 120.87L299.784 122.409L299.797 122.412L300.196 120.87ZM287.489 114.94L286.528 116.211L286.537 116.217L286.546 116.224L287.489 114.94ZM279.083 104.774L277.655 105.481L277.658 105.487L279.083 104.774ZM279.083 75.3859L277.658 74.6734L277.655 74.6794L279.083 75.3859ZM287.62 65.1553L288.563 66.439L288.573 66.4316L287.62 65.1553ZM331.605 59.1603L331.189 60.6982L331.197 60.7004L331.205 60.7026L331.605 59.1603ZM344.246 65.0901L343.285 66.3609L343.295 66.3684L344.246 65.0901ZM352.652 75.3207L351.221 76.0212L351.224 76.0272L352.652 75.3207ZM339.685 70.8245L338.663 72.0467L338.668 72.0508L339.685 70.8245ZM292.051 70.8245L291.039 69.5941L291.034 69.5981L292.051 70.8245ZM292.051 109.205L291.04 110.437L291.044 110.441L292.051 109.205ZM339.685 109.205L340.701 110.433L340.702 110.432L339.685 109.205ZM355.715 90.0476H354.122C354.122 95.5501 353.135 100.206 351.224 104.068L352.652 104.774L354.08 105.481C356.253 101.089 357.308 95.9269 357.308 90.0476H355.715ZM352.652 104.774L351.227 104.062C349.293 107.931 346.648 111.127 343.285 113.669L344.246 114.94L345.207 116.211C348.969 113.366 351.928 109.785 354.077 105.487L352.652 104.774ZM344.246 114.94L343.295 113.662C339.915 116.176 335.889 118.073 331.192 119.331L331.605 120.87L332.017 122.409C337.051 121.06 341.453 119.003 345.197 116.218L344.246 114.94ZM331.605 120.87L331.202 119.328C326.526 120.55 321.45 121.166 315.965 121.166V122.759V124.353C321.689 124.353 327.039 123.709 332.007 122.411L331.605 120.87ZM315.965 122.759V121.166C310.436 121.166 305.315 120.55 300.595 119.327L300.196 120.87L299.797 122.412C304.807 123.709 310.2 124.353 315.965 124.353V122.759ZM300.196 120.87L300.608 119.331C295.91 118.072 291.86 116.175 288.433 113.656L287.489 114.94L286.546 116.224C290.33 119.005 294.751 121.06 299.784 122.409L300.196 120.87ZM287.489 114.94L288.45 113.669C285.088 111.127 282.443 107.931 280.508 104.062L279.083 104.774L277.658 105.487C279.807 109.785 282.766 113.366 286.528 116.211L287.489 114.94ZM279.083 104.774L280.511 104.068C278.601 100.206 277.614 95.5501 277.614 90.0476H276.021H274.427C274.427 95.9269 275.482 101.089 277.655 105.481L279.083 104.774ZM276.021 90.0476H277.614C277.614 84.5906 278.6 79.9555 280.511 76.0923L279.083 75.3859L277.655 74.6794C275.483 79.0702 274.427 84.2096 274.427 90.0476H276.021ZM279.083 75.3859L280.508 76.0984C282.485 72.144 285.169 68.9331 288.563 66.439L287.62 65.1553L286.676 63.8716C282.858 66.6774 279.851 70.2869 277.658 74.6734L279.083 75.3859ZM287.62 65.1553L288.573 66.4316C291.998 63.8729 296.045 61.9563 300.738 60.6992L300.326 59.1603L299.914 57.6214C294.876 58.9708 290.452 61.0508 286.666 63.8789L287.62 65.1553ZM300.326 59.1603L300.738 60.6992C305.456 59.4354 310.53 58.7985 315.965 58.7985V57.2054V55.6123C310.28 55.6123 304.927 56.2786 299.914 57.6214L300.326 59.1603ZM315.965 57.2054V58.7985C321.446 58.7985 326.518 59.4357 331.189 60.6982L331.605 59.1603L332.02 57.6223C327.047 56.2783 321.693 55.6123 315.965 55.6123V57.2054ZM331.605 59.1603L331.205 60.7026C335.893 61.9163 339.91 63.809 343.285 66.3609L344.246 65.0901L345.207 63.8194C341.458 60.9844 337.047 58.9239 332.004 57.618L331.605 59.1603ZM344.246 65.0901L343.295 66.3684C346.644 68.8597 349.286 72.0681 351.221 76.0212L352.652 75.3207L354.083 74.6202C351.935 70.2325 348.972 66.6204 345.197 63.8119L344.246 65.0901ZM352.652 75.3207L351.224 76.0272C353.135 79.8888 354.122 84.5451 354.122 90.0476H355.715H357.308C357.308 84.1683 356.253 79.0066 354.08 74.6143L352.652 75.3207ZM347.7 90.0476H349.293C349.293 81.2977 346.486 74.395 340.702 69.5981L339.685 70.8245L338.668 72.0508C343.57 76.1161 346.107 82.0288 346.107 90.0476H347.7ZM339.685 70.8245L340.707 69.6022C335.004 64.8342 326.665 62.5847 315.965 62.5847V64.1778V65.771C326.292 65.771 333.766 67.9526 338.663 72.0467L339.685 70.8245ZM315.965 64.1778V62.5847C305.221 62.5847 296.825 64.8345 291.039 69.5941L292.051 70.8245L293.063 72.0548C298.05 67.9523 305.597 65.771 315.965 65.771V64.1778ZM292.051 70.8245L291.034 69.5981C285.249 74.395 282.442 81.2977 282.442 90.0476H284.036H285.629C285.629 82.0288 288.165 76.1161 293.068 72.0508L292.051 70.8245ZM284.036 90.0476H282.442C282.442 98.7969 285.249 105.682 291.04 110.437L292.051 109.205L293.062 107.974C288.165 103.954 285.629 98.0668 285.629 90.0476H284.036ZM292.051 109.205L291.044 110.441C296.83 115.153 305.224 117.38 315.965 117.38V115.787V114.194C305.594 114.194 298.045 112.033 293.057 107.97L292.051 109.205ZM315.965 115.787V117.38C326.662 117.38 334.998 115.154 340.701 110.433L339.685 109.205L338.669 107.978C333.771 112.033 326.295 114.194 315.965 114.194V115.787ZM339.685 109.205L340.702 110.432C346.484 105.637 349.293 98.7571 349.293 90.0476H347.7H346.107C346.107 98.0198 343.572 103.912 338.668 107.979L339.685 109.205ZM469.966 121V122.593H471.56V121H469.966ZM447.159 121H445.566V122.593H447.159V121ZM447.159 111.942H448.753V108.661L446.174 110.691L447.159 111.942ZM440.773 116.373L441.581 117.747L441.591 117.741L441.601 117.735L440.773 116.373ZM433.606 119.762L433.049 118.269L433.041 118.272L433.606 119.762ZM425.46 121.977L425.179 120.409L425.175 120.41L425.46 121.977ZM402.849 120.805L402.368 122.323L402.377 122.326L402.387 122.329L402.849 120.805ZM391.51 114.679L390.493 115.906L391.51 114.679ZM383.495 75.2556L382.067 74.5492L382.061 74.5617L383.495 75.2556ZM391.641 65.2205L392.614 66.4815L392.624 66.4737L391.641 65.2205ZM403.696 59.2255L404.13 60.7584L404.143 60.7545L403.696 59.2255ZM426.307 57.857L426.041 59.4278L426.054 59.43L426.067 59.4319L426.307 57.857ZM440.839 62.1578L440.194 63.6148L440.206 63.62L440.218 63.625L440.839 62.1578ZM447.159 65.2205L446.386 66.6131L448.753 67.928V65.2205H447.159ZM447.159 38.7643H448.753V37.1711H447.159V38.7643ZM432.367 38.7643H430.774V40.3574H432.367V38.7643ZM432.367 31.466V29.8729H430.774V31.466H432.367ZM455.305 31.466H456.898V29.8729H455.305V31.466ZM455.305 113.637H453.712V115.23H455.305V113.637ZM469.966 113.637H471.56V112.043H469.966V113.637ZM427.024 114.679L427.427 116.22L427.435 116.218L427.443 116.216L427.024 114.679ZM434.974 111.682L434.272 110.252L434.261 110.257L434.974 111.682ZM441.686 107.642L440.752 106.351L440.745 106.356L440.739 106.36L441.686 107.642ZM447.159 103.276L448.22 104.465L448.753 103.989V103.276H447.159ZM447.159 73.4962H448.753V72.6911L448.104 72.2136L447.159 73.4962ZM441.621 70.0425L440.849 71.4366L440.861 71.4429L440.872 71.449L441.621 70.0425ZM434.909 67.045L434.364 68.5423L434.373 68.5453L434.909 67.045ZM427.22 64.9598L426.917 66.5239L426.921 66.5248L427.22 64.9598ZM396.854 70.8245L397.861 72.0584L397.864 72.0566L396.854 70.8245ZM390.728 78.7744L389.284 78.1017L389.28 78.1106L390.728 78.7744ZM396.072 109.01L394.997 110.187L395.003 110.192L396.072 109.01ZM469.966 121V119.407H447.159V121V122.593H469.966V121ZM447.159 121H448.753V111.942H447.159H445.566V121H447.159ZM447.159 111.942L446.174 110.691C444.182 112.258 442.107 113.699 439.946 115.012L440.773 116.373L441.601 117.735C443.871 116.355 446.053 114.841 448.145 113.194L447.159 111.942ZM440.773 116.373L439.966 115C437.835 116.254 435.53 117.344 433.049 118.269L433.606 119.762L434.162 121.255C436.807 120.269 439.281 119.1 441.581 117.747L440.773 116.373ZM433.606 119.762L433.041 118.272C430.621 119.19 428.002 119.904 425.179 120.409L425.46 121.977L425.741 123.546C428.739 123.009 431.55 122.245 434.171 121.251L433.606 119.762ZM425.46 121.977L425.175 120.41C422.416 120.912 419.385 121.166 416.077 121.166V122.759V124.353C419.546 124.353 422.77 124.086 425.745 123.545L425.46 121.977ZM416.077 122.759V121.166C411.714 121.166 407.461 120.537 403.311 119.28L402.849 120.805L402.387 122.329C406.838 123.678 411.403 124.353 416.077 124.353V122.759ZM402.849 120.805L403.329 119.286C399.259 117.998 395.664 116.053 392.527 113.453L391.51 114.679L390.493 115.906C393.96 118.779 397.923 120.917 402.368 122.323L402.849 120.805ZM391.51 114.679L392.527 113.453C389.416 110.874 386.904 107.609 384.997 103.63L383.56 104.318L382.124 105.007C384.214 109.368 387.001 113.011 390.493 115.906L391.51 114.679ZM383.56 104.318L384.997 103.63C383.123 99.718 382.156 95.0327 382.156 89.5263H380.563H378.97C378.97 95.4016 380.001 100.578 382.124 105.007L383.56 104.318ZM380.563 89.5263H382.156C382.156 84.2411 383.099 79.731 384.929 75.9495L383.495 75.2556L382.061 74.5617C379.981 78.8604 378.97 83.8641 378.97 89.5263H380.563ZM383.495 75.2556L384.923 75.9619C386.819 72.1299 389.382 68.9775 392.614 66.4814L391.641 65.2205L390.667 63.9595C387.036 66.7633 384.168 70.301 382.067 74.5492L383.495 75.2556ZM391.641 65.2205L392.624 66.4737C395.878 63.9204 399.705 62.0106 404.13 60.7584L403.696 59.2255L403.262 57.6925C398.477 59.0468 394.267 61.1337 390.657 63.9672L391.641 65.2205ZM403.696 59.2255L404.143 60.7545C408.589 59.4542 413.368 58.7985 418.488 58.7985V57.2054V55.6123C413.094 55.6123 408.012 56.3033 403.249 57.6964L403.696 59.2255ZM418.488 57.2054V58.7985C421.05 58.7985 423.568 59.0085 426.041 59.4278L426.307 57.857L426.573 56.2863C423.921 55.8367 421.225 55.6123 418.488 55.6123V57.2054ZM426.307 57.857L426.067 59.4319C428.556 59.8117 430.98 60.3597 433.338 61.0757L433.801 59.5513L434.264 58.0268C431.757 57.2658 429.184 56.6844 426.548 56.2821L426.307 57.857ZM433.801 59.5513L433.338 61.0757C435.711 61.796 437.996 62.6425 440.194 63.6148L440.839 62.1578L441.483 60.7008C439.163 59.6747 436.757 58.7836 434.264 58.0268L433.801 59.5513ZM440.839 62.1578L440.218 63.625C442.43 64.5607 444.485 65.5571 446.386 66.6131L447.159 65.2205L447.933 63.8278C445.924 62.7117 443.766 61.6663 441.459 60.6906L440.839 62.1578ZM447.159 65.2205H448.753V38.7643H447.159H445.566V65.2205H447.159ZM447.159 38.7643V37.1711H432.367V38.7643V40.3574H447.159V38.7643ZM432.367 38.7643H433.961V31.466H432.367H430.774V38.7643H432.367ZM432.367 31.466V33.0591H455.305V31.466V29.8729H432.367V31.466ZM455.305 31.466H453.712V113.637H455.305H456.898V31.466H455.305ZM455.305 113.637V115.23H469.966V113.637V112.043H455.305V113.637ZM469.966 113.637H468.373V121H469.966H471.56V113.637H469.966ZM417.966 115.787V117.38C421.304 117.38 424.459 116.997 427.427 116.22L427.024 114.679L426.621 113.138C423.941 113.839 421.059 114.194 417.966 114.194V115.787ZM427.024 114.679L427.443 116.216C430.402 115.409 433.152 114.374 435.686 113.107L434.974 111.682L434.261 110.257C431.931 111.422 429.38 112.385 426.605 113.142L427.024 114.679ZM434.974 111.682L435.676 113.112C438.229 111.858 440.55 110.462 442.633 108.923L441.686 107.642L440.739 106.36C438.825 107.775 436.671 109.073 434.272 110.252L434.974 111.682ZM441.686 107.642L442.62 108.932C444.698 107.429 446.566 105.94 448.22 104.465L447.159 103.276L446.099 102.087C444.538 103.479 442.757 104.9 440.752 106.351L441.686 107.642ZM447.159 103.276H448.753V73.4962H447.159H445.566V103.276H447.159ZM447.159 73.4962L448.104 72.2136C446.384 70.9458 444.471 69.754 442.369 68.636L441.621 70.0425L440.872 71.449C442.854 72.5032 444.633 73.6138 446.214 74.7787L447.159 73.4962ZM441.621 70.0425L442.392 68.6485C440.267 67.4731 437.95 66.4395 435.445 65.5447L434.909 67.045L434.373 68.5453C436.733 69.3882 438.891 70.353 440.849 71.4366L441.621 70.0425ZM434.909 67.045L435.453 65.5478C432.977 64.6472 430.33 63.9306 427.518 63.3948L427.22 64.9598L426.921 66.5248C429.582 67.0316 432.062 67.7052 434.364 68.5422L434.909 67.045ZM427.22 64.9598L427.522 63.3957C424.719 62.8531 421.75 62.5847 418.618 62.5847V64.1778V65.771C421.568 65.771 424.333 66.0238 426.917 66.5239L427.22 64.9598ZM418.618 64.1778V62.5847C414.01 62.5847 409.767 63.1663 405.901 64.3486L406.367 65.8721L406.833 67.3955C410.353 66.3189 414.277 65.771 418.618 65.771V64.1778ZM406.367 65.8721L405.901 64.3486C402.035 65.5312 398.673 67.2729 395.844 69.5924L396.854 70.8245L397.864 72.0566C400.334 70.0318 403.314 68.472 406.833 67.3955L406.367 65.8721ZM396.854 70.8245L395.846 69.5905C393.046 71.8771 390.858 74.7217 389.284 78.1017L390.728 78.7744L392.172 79.447C393.552 76.4845 395.448 74.0292 397.861 72.0584L396.854 70.8245ZM390.728 78.7744L389.28 78.1106C387.736 81.4798 386.985 85.2966 386.985 89.5263H388.578H390.171C390.171 85.6757 390.854 82.3245 392.177 79.4381L390.728 78.7744ZM388.578 89.5263H386.985C386.985 98.2836 389.593 105.252 394.997 110.187L396.072 109.01L397.146 107.834C392.559 103.645 390.171 97.6244 390.171 89.5263H388.578ZM396.072 109.01L395.003 110.192C400.396 115.068 408.138 117.38 417.966 117.38V115.787V114.194C408.594 114.194 401.739 111.988 397.14 107.828L396.072 109.01Z" fill="black" mask="url(#path-1-outside-1_434_9)"/>
<rect x="63.8841" y="30.3148" width="353.656" height="8.96188" fill="black" stroke="black" stroke-width="1.59313"/>
</svg>
